{"title":"Demi Lovato - Let It Go 720p x264 AAC E-Subs [GWC].mp4","uid":9131019,"size":48669593,"categoryP":"video","categoryS":"music_videos","magnet":"?xt=urn:btih:d19afb0dd1e555746499342f2830a5ca61464e7f&amp;dn=Demi+Lovato+-+Let+It+Go+720p+x264+AAC+E-Subs+%5BGWC%5D.mp4&amp;tr=udp%3A%2F%2Ftracker.openbittorrent.com%3A80&amp;tr=udp%3A%2F%2Fopen.demonii.com%3A1337&amp;tr=udp%3A%2F%2Ftracker.coppersurfer.tk%3A6969&amp;tr=udp%3A%2F%2Fexodus.desync.com%3A6969","seeders":5,"leechers":1,"uploader":"canc232","files":1,"time":1383317613,"description":"Demi Lovato - Let It Go 720p x264 AAC E-Subs [GWC].mp4\n\nCOVER : &lt;a href=&quot;\nhttp://s20.postimg.org/q51td49vh/Demi_fro.jpg&quot; rel=&quot;nofollow&quot; target=&quot;_NEW&quot;&gt;\nhttp://s20.postimg.org/q51td49vh/Demi_fro.jpg&lt;/a&gt;\n\n\nDemi Lovato's liberation-themed power ballad &quot;Let It Go&quot; video shows her playing the piano, and wandering about a spooky, of Victorian interior, abandoned house.\nAmid the &quot;Frozen&quot; sneak peek scenes, Demi will serve beauty close-up shots, anger, frustration and freedom sentiments.\n\n\nTHUMBNAIL IMAGE : &lt;a href=&quot;\nhttp://img194.imageshack.us/img194/135/qpbw.jpg&quot; rel=&quot;nofollow&quot; target=&quot;_NEW&quot;&gt;\nhttp://img194.imageshack.us/img194/135/qpbw.jpg&lt;/a&gt;\n\n\nMEDIA INFO :\n\nGeneral \nFormat : MPEG-4 \nFile size : 46.4 MiB \nDuration : 3mn 54s \nOverall bit rate mode : Variable \nOverall bit rate : 1 659 Kbps\n\nVideo \nFormat : AVC \nFormat profile : &lt;a class=&quot;__cf_email__&quot; href=&quot;/cdn-cgi/l/email-protection&quot; data-cfemail=&quot;f2ba9b959ab2bec1dcc3&quot;&gt;[email&amp;#160;protected]&lt;/a&gt;&lt;script cf-hash='f9e31' type=&quot;text/javascript&quot;&gt;\n/* &lt;![CDATA[ */!function(){try{var t=&quot;currentScript&quot;in document?document.currentScript:function(){for(var t=document.getElementsByTagName(&quot;script&quot;),e=t.length;e--;)if(t[e].getAttribute(&quot;cf-hash&quot;))return t[e]}();if(t&amp;&amp;t.previousSibling){var e,r,n,i,c=t.previousSibling,a=c.getAttribute(&quot;data-cfemail&quot;);if(a){for(e=&quot;&quot;,r=parseInt(a.substr(0,2),16),n=2;a.length-n;n+=2)i=parseInt(a.substr(n,2),16)^r,e+=String.fromCharCode(i);e=document.createTextNode(e),c.parentNode.replaceChild(e,c)}}}catch(u){}}();/* ]]&gt; */&lt;/script&gt; \nFormat settings, CABAC : Yes \nDuration : 3mn 50s \nSource duration : 3mn 50s \nBit rate : 1 606 Kbps  \nWidth : 1 280 pixels \nHeight : 720 pixels \nDisplay aspect ratio : 16:9 \nFrame rate : 23.976 fps \nStream size : 44.0 MiB (95%) \nTitle : Demi Lovato - Let It Go 720p x264 AAC E-Subs [GWC] \n\nAudio \nFormat : AAC \nFormat profile : LC \nDuration : 3mn 50s \nBit rate mode : Variable  \nChannel(s) : 2 channels \nSampling rate : 48.0 KHz \nStream size : 2.30 MiB (5%)\nLanguage : English \n\nText \nFormat : Timed Text \nDuration : 3mn 54s \nStream size : 2.16 KiB (0%) \nTitle : English Subtitle by [GWC] \nLanguage : English","torrent":{"xt":"urn:btih:d19afb0dd1e555746499342f2830a5ca61464e7f","amp;dn":"Demi+Lovato+-+Let+It+Go+720p+x264+AAC+E-Subs+%5BGWC%5D.mp4","amp;tr":["udp%3A%2F%2Ftracker.openbittorrent.com%3A80","udp%3A%2F%2Fopen.demonii.com%3A1337","udp%3A%2F%2Ftracker.coppersurfer.tk%3A6969","udp%3A%2F%2Fexodus.desync.com%3A6969"],"infoHash":"d19afb0dd1e555746499342f2830a5ca61464e7f","infoHashBuffer":{"type":"Buffer","data":[209,154,251,13,209,229,85,116,100,153,52,47,40,48,165,202,97,70,78,127]},"announce":[],"urlList":[]}}